# xmcd CD database file
#
# Track frame offsets:
#	150
#	30965
#	47798
#	64513
#	83513
#	102053
#	115841
#	143183
#	161331
#	178192
#	200459
#	241259
#	259687
#	281308
#
# Disc length: 4088 seconds
#
# Revision: 0
# Processed by: cddbd v1.5PL3 Copyright (c) Steve Scherf et al.
# Submitted via: CDex 1.51
#
DISCID=ad0ff60e
DTITLE=矢沢永吉 - ONE MAN in BUDOKAN EIKICHI YAZAWA CONCERT TOUR 2002 Disc2
DYEAR=1900
DGENRE=Rock and Roll
TTITLE0=ワン･ナイト･ショー
TTITLE1=気ままなロックン・ローラー
TTITLE2=MCメンバ−紹介
TTITLE3=I LOVE YOU ,OK
TTITLE4=背中ごしのI LOVE YOU
TTITLE5=DON'T WANNA STOP
TTITLE6=逃亡者
TTITLE7=Oh!ラヴシック
TTITLE8=鎖を引きちぎれ
TTITLE9=トラベリン・バス
TTITLE10=回転扉(ドア）
TTITLE11=チャイナタウン（東京国際フォーラムSPECIAL EDITION）
TTITLE12=止まらない Ha〜Ha（東京スタジアムVERSION）
TTITLE13=I AM（東京スタジアム VERSION）
EXTD=
EXTT0=
EXTT1=
EXTT2=
EXTT3=
EXTT4=
EXTT5=
EXTT6=
EXTT7=
EXTT8=
EXTT9=
EXTT10=
EXTT11=
EXTT12=
EXTT13=
PLAYORDER=
